<svg width="134" height="36" viewBox="0 0 134 36" fill="none" xmlns="http://www.w3.org/2000/svg">
<g clip-path="url(#clip0_7_2)">
<path d="M21.3539 0.127243C21.3539 0.127243 7.98555 0.127243 4.64346 1.18482C2.81411 1.77707 1.37201 3.51117 0.879496 5.71093C0 9.72973 0 18.0631 0 18.0631C0 18.0631 0 26.4397 0.879496 30.4162C1.37201 32.6159 2.81411 34.35 4.64346 34.9423C7.98555 35.9998 21.3539 35.9998 21.3539 35.9998C21.3539 35.9998 34.7222 35.9998 38.0643 34.9423C39.8937 34.35 41.3364 32.6159 41.829 30.4162C42.7085 26.3973 42.7085 18.0631 42.7085 18.0631C42.7085 18.0631 42.7085 9.72973 41.829 5.71093C41.3364 3.51117 39.8937 1.77707 38.0643 1.18482C34.7222 0.127243 21.3539 0.127243 21.3539 0.127243ZM17.0622 10.3643L28.1789 18.1061L17.0622 25.8049V10.3643Z" fill="#FF0000"/>
<path d="M17.0622 25.8049L28.1791 18.1058L17.0622 10.3643V25.8049Z" fill="white"/>
<path d="M51.7495 23.4783L46.9651 2.6228H51.1515L52.8401 12.0564C53.2623 14.3831 53.5789 16.3713 53.79 18.0211H53.8955C54.0362 16.8367 54.3529 14.8907 54.8454 12.0987L56.6044 2.6228H60.7908L55.9359 23.4783V33.5041H51.7847L51.7495 23.4783ZM62.0221 32.8273C61.1777 32.1504 60.5797 31.0928 60.2279 29.6122C59.8761 28.1739 59.7002 26.228 59.7002 23.859V20.6016C59.7002 18.1904 59.9113 16.2444 60.2982 14.7638C60.7204 13.2832 61.3536 12.2256 62.198 11.5488C63.0775 10.8719 64.2032 10.5335 65.6104 10.5335C66.9824 10.5335 68.1082 10.8719 68.9525 11.5488C69.7968 12.2256 70.3949 13.3255 70.7818 14.7638C71.1688 16.2021 71.3799 18.1481 71.3799 20.6016V23.859C71.3799 26.2703 71.204 28.1739 70.817 29.6545C70.43 31.0928 69.832 32.1927 68.9877 32.8696C68.1434 33.5464 66.9824 33.8848 65.54 33.8848C64.0273 33.8425 62.8664 33.5041 62.0221 32.8273ZM66.7713 29.3161C67.0176 28.5969 67.1231 27.3701 67.1231 25.7203V18.698C67.1231 17.0905 67.0176 15.906 66.7713 15.1445C66.5251 14.3831 66.1381 14.0447 65.54 14.0447C64.9772 14.0447 64.555 14.4254 64.3439 15.1445C64.0977 15.906 63.9921 17.0905 63.9921 18.698V25.7203C63.9921 27.3701 64.0977 28.5969 64.3439 29.3161C64.555 30.0353 64.9772 30.416 65.5752 30.416C66.1029 30.416 66.5251 30.0353 66.7713 29.3161ZM84.9593 10.9565V33.5041H81.6524L81.3006 30.7544H81.1951C80.3156 32.8273 78.9436 33.8848 77.1494 33.8848C75.9181 33.8848 75.0034 33.3772 74.4054 32.4042C73.8073 31.4313 73.5259 29.9083 73.5259 27.7932V10.9565H77.7474V27.4971C77.7474 28.5123 77.853 29.2315 78.0289 29.6545C78.2048 30.0776 78.5214 30.2891 78.9436 30.2891C79.2954 30.2891 79.6472 30.1622 79.999 29.866C80.3508 29.6122 80.597 29.2738 80.7377 28.8508V10.9565H84.9593Z" fill="white"/>
<path d="M96.4279 6.72621H92.2415V33.5041H88.1255V6.76851H83.9391V2.70741H96.4279V6.72621Z" fill="white"/>
<path d="M106.595 10.9565V33.5041H103.288L102.936 30.7544H102.831C101.951 32.8273 100.579 33.8848 98.785 33.8848C97.5537 33.8848 96.639 33.3772 96.041 32.4042C95.4429 31.4313 95.1615 29.9083 95.1615 27.7932V10.9565H99.383V27.4971C99.383 28.5123 99.4886 29.2315 99.6645 29.6545C99.8404 30.0776 100.157 30.2891 100.579 30.2891C100.931 30.2891 101.283 30.1622 101.635 29.866C101.986 29.6122 102.233 29.2738 102.373 28.8508V10.9565H106.595ZM120.561 14.5523C120.315 13.114 119.893 12.0987 119.33 11.4642C118.767 10.8296 117.958 10.4912 116.973 10.4912C116.199 10.4912 115.46 10.745 114.792 11.295C114.123 11.8026 113.596 12.5217 113.244 13.3678H113.209V1.48061H109.128V33.5041H112.611L113.033 31.389H113.138C113.455 32.1504 113.947 32.7427 114.616 33.208C115.284 33.631 115.988 33.8848 116.797 33.8848C118.239 33.8848 119.26 33.0811 119.928 31.5159C120.596 29.9507 120.948 27.4548 120.948 24.1128V20.5593C120.948 17.9365 120.808 15.9906 120.561 14.5523ZM116.692 23.7321C116.692 25.3819 116.621 26.651 116.516 27.5817C116.41 28.5123 116.199 29.1892 115.953 29.5699C115.671 29.9507 115.32 30.1622 114.897 30.1622C114.546 30.1622 114.229 30.0776 113.948 29.866C113.666 29.6545 113.42 29.3584 113.244 28.9777V16.2021C113.385 15.6099 113.631 15.1022 113.983 14.6792C114.334 14.2985 114.721 14.087 115.108 14.087C115.531 14.087 115.882 14.2985 116.093 14.6792C116.34 15.1022 116.48 15.7791 116.586 16.7098C116.692 17.6827 116.727 19.0364 116.727 20.7709L116.692 23.7321ZM126.929 23.9013V25.0435C126.929 26.4818 126.964 27.5817 127.034 28.3008C127.105 29.02 127.245 29.5699 127.492 29.866C127.703 30.2045 128.055 30.3737 128.547 30.3737C129.18 30.3737 129.603 30.0776 129.849 29.4853C130.095 28.8931 130.201 27.9201 130.236 26.5241L133.859 26.7779C133.894 26.9894 133.894 27.2432 133.894 27.5817C133.894 29.6545 133.437 31.2197 132.487 32.235C131.537 33.2503 130.201 33.7579 128.477 33.7579C126.401 33.7579 124.959 32.9542 124.114 31.389C123.27 29.8237 122.848 27.4125 122.848 24.1128V20.1786C122.848 16.7944 123.27 14.3408 124.15 12.7756C125.029 11.2103 126.507 10.4489 128.582 10.4489C130.025 10.4489 131.15 10.7873 131.924 11.4219C132.698 12.0564 133.226 13.0717 133.543 14.3831C133.859 15.7368 134 17.5981 134 19.9671V23.8167H126.929V23.9013ZM127.457 14.4254C127.245 14.7638 127.105 15.2714 127.034 15.9906C126.964 16.7098 126.929 17.8096 126.929 19.2902V20.8978H130.025V19.2902C130.025 17.8519 129.99 16.7521 129.919 15.9906C129.849 15.2291 129.673 14.7215 129.462 14.4254C129.251 14.1293 128.899 13.9601 128.477 13.9601C128.019 13.9601 127.668 14.1293 127.457 14.4254Z" fill="white"/>
</g>
<defs>
<clipPath id="clip0_7_2">
<rect width="134" height="36" fill="white"/>
</clipPath>
</defs>
</svg>

